<svg xmlns="http://www.w3.org/2000/svg" viewBox="0 0 167 167"><g fill="#161714"><path d="M75.76 24.06q10.69-.04 21.77 1.74c9.26 1.49 6.48 12.55-.77 11.34q-11.11-1.85-20.95-1.81-9.85.04-20.95 1.98c-7.23 1.27-10.1-9.77-.85-11.34q11.07-1.87 21.75-1.91M117.64 86.19a41.95 41.95 0 0 1-41.95 41.95 41.95 41.95 0 0 1-41.95-41.95 41.95 41.95 0 0 1 41.95-41.95 41.95 41.95 0 0 1 41.95 41.95m-13.994-2.956a28.09 27.79-6 0 0-30.84-24.702 28.09 27.79-6 0 0-25.032 30.574 28.09 27.79-6 0 0 30.84 24.702 28.09 27.79-6 0 0 25.032-30.574"/><rect width="11.32" height="53.92" x="13.03" y="59.17" rx="5.53"/><rect width="11.22" height="53.84" x="127.44" y="59.2" rx="5.39"/><path d="M75.78 136.78q9.89-.14 21.01-2.2c7.25-1.34 10.24 9.71.97 11.37q-11.09 1.99-21.82 2.14-10.72.16-21.86-1.52c-9.32-1.41-6.64-12.54.65-11.4q11.17 1.75 21.05 1.61"/></g></svg>